<?xml version="1.0" encoding="UTF-8"?><svg id="Layer_2" xmlns="http://www.w3.org/2000/svg" viewBox="0 0 587 652.21"><defs><style>.cls-1,.cls-2{stroke-width:0px;}.cls-2{fill:none;}</style></defs><g id="Layer_1-2"><rect class="cls-2" width="587" height="652.21"/><path class="cls-1" d="m440.88,118.21c0,34.26-.05,68.53.08,102.79.01,3.15-.92,3.76-3.87,3.75-60.18-.08-120.36-.04-180.54-.14-3.19,0-4.06.68-4.02,3.96.2,14.84.21,29.69,0,44.53-.05,3.38,1,3.9,4.08,3.89,48.34-.1,96.69-.04,145.03-.14,3.08,0,3.8.81,3.79,3.83-.11,33.04-.11,66.07,0,99.11,0,2.83-.52,3.71-3.58,3.7-48.46-.12-96.91-.04-145.37-.17-3.32,0-3.98.89-3.94,4.04.18,14.95.16,29.91.01,44.87-.03,2.77.65,3.49,3.46,3.48,60.18-.09,120.36-.04,180.54-.14,3.31,0,4.44.58,4.42,4.23-.16,32.92-.14,65.85-.02,98.78.01,2.99-.75,3.69-3.67,3.63-9.71-.2-19.43-.18-29.14,0-2.73.05-3.54-.56-3.52-3.42.13-21.43.01-42.86.15-64.29.02-2.88-.83-3.41-3.53-3.41-60.29.08-120.58.03-180.87.14-3.21,0-4.01-.72-4-3.97.13-38.51.08-77.01.08-115.52q0-4.48,4.33-4.49c48.46,0,96.91-.03,145.37.07,3.09,0,3.86-.82,3.79-3.83-.2-9.15-.19-18.31,0-27.45.06-2.86-.55-3.7-3.6-3.69-48.46.11-96.91.08-145.37.08q-4.52,0-4.52-4.63c0-38.62.03-77.23-.07-115.85,0-2.77.66-3.48,3.46-3.48,60.29.09,120.58.04,180.87.14,3.09,0,4.18-.51,4.08-3.9-.27-9.26-.2-18.53-.03-27.79.05-2.69-.76-3.27-3.33-3.27-34.95.08-69.89.06-104.84.06-48.9,0-97.81-.03-146.71.06-2.95,0-3.94-.59-3.87-3.76.22-10.6.08-21.2.08-31.8h294.77Z"/><path class="cls-1" d="m146.11,365.41c0-57.69.02-115.38-.06-173.07,0-2.9.51-3.98,3.73-3.9,9.71.24,19.42.21,29.13.01,2.83-.06,3.45.75,3.44,3.5-.08,59.92-.06,119.84-.06,179.77,0,43.52.04,87.04-.08,130.56,0,3.15.91,3.76,3.86,3.75,60.17-.09,120.33-.04,180.5-.14,3.12,0,4.15.56,4.06,3.92-.26,9.7-.2,19.42-.02,29.12.05,2.71-.78,3.26-3.34,3.25-72.67-.07-145.34-.07-218.01.01-2.79,0-3.2-.92-3.2-3.39.06-57.8.05-115.6.05-173.41Z"/></g></svg>