<svg width="280" height="48" viewBox="0 0 280 48" fill="none" xmlns="http://www.w3.org/2000/svg">
  <!-- E Mark -->
  <g transform="translate(0, 2) scale(0.067)">
    <path d="m344.93,0c0,40.08-.06,80.17.09,120.25.01,3.69-1.07,4.4-4.52,4.39-70.4-.1-140.8-.04-211.2-.17-3.73,0-4.75.8-4.7,4.63.24,17.36.25,34.73,0,52.09-.06,3.96,1.17,4.56,4.78,4.56,56.55-.12,113.11-.05,169.66-.17,3.6,0,4.45.94,4.44,4.47-.13,38.65-.13,77.29,0,115.94.01,3.31-.61,4.34-4.19,4.33-56.68-.13-113.37-.05-170.05-.19-3.88,0-4.65,1.04-4.61,4.72.21,17.49.18,34.99.01,52.48-.03,3.24.76,4.08,4.04,4.08,70.4-.1,140.8-.05,211.2-.16,3.88,0,5.19.68,5.17,4.94-.19,38.52-.17,77.03-.02,115.55.01,3.49-.87,4.31-4.29,4.24-11.36-.23-22.73-.21-34.09,0-3.19.06-4.14-.66-4.12-4.01.16-25.07.01-50.14.17-75.2.02-3.37-.98-3.99-4.13-3.98-70.53.09-141.06.04-211.59.16-3.75,0-4.69-.84-4.68-4.64.15-45.04.1-90.09.1-135.13q0-5.25,5.06-5.25c56.68,0,113.37-.04,170.05.09,3.62,0,4.51-.96,4.44-4.48-.24-10.7-.23-21.41,0-32.12.07-3.35-.65-4.33-4.21-4.32-56.68.13-113.37.09-170.05.09q-5.29,0-5.29-5.42c0-45.18.04-90.35-.08-135.53,0-3.24.77-4.07,4.05-4.07,70.53.1,141.06.05,211.59.16,3.61,0,4.89-.6,4.77-4.56-.32-10.83-.24-21.67-.03-32.51.06-3.15-.88-3.83-3.9-3.82-40.88.1-81.76.07-122.64.07-57.21,0-114.41-.03-171.62.08-3.45,0-4.6-.69-4.53-4.39C.26,24.81.1,12.4.1,0h344.83Z" fill="#FE5A0E"/>
    <path d="m.1,289.18C.1,221.69.13,154.2.03,86.72c0-3.39.6-4.65,4.36-4.56,11.35.28,22.72.24,34.08.02,3.32-.07,4.03.88,4.03,4.09-.1,70.1-.07,140.2-.07,210.29,0,50.91.04,101.82-.09,152.73,0,3.69,1.07,4.39,4.52,4.39,70.38-.1,140.77-.04,211.15-.16,3.65,0,4.86.66,4.75,4.58-.31,11.35-.24,22.71-.03,34.07.06,3.17-.92,3.81-3.91,3.81-85.01-.08-170.02-.08-255.03.02-3.26,0-3.75-1.08-3.74-3.96.07-67.62.06-135.24.06-202.85Z" fill="#FE5A0E"/>
  </g>
  <!-- EARTHWISE -->
  <text x="38" y="22" font-family="Oswald, Impact, Arial Narrow, sans-serif" font-size="22" font-weight="700" fill="white" letter-spacing="0.12em">EARTHWISE</text>
  <!-- EXCAVATING -->
  <text x="38" y="42" font-family="Oswald, Impact, Arial Narrow, sans-serif" font-size="14" font-weight="400" fill="#FEC84B" letter-spacing="0.22em">EXCAVATING</text>
</svg>
