<svg width="106" height="51" viewBox="0 0 106 51" fill="none" xmlns="http://www.w3.org/2000/svg">
<path d="M5 28.9988L20.3339 17.3124V8.61715H21.3635V7.43583H19.9275C19.734 7.43583 19.5624 7.29854 19.5624 7.12099V6.07816L18.5121 5.50764C16.1537 4.24939 13.1734 4.56306 11.1774 6.25571C12.8727 3.5013 16.1318 1.88795 19.5624 2.12469H24.9025C25.096 2.12469 25.2457 2.262 25.2457 2.43955V2.75441C25.2457 2.93078 25.4172 3.0882 25.6108 3.0882H27.8402V2.83254C27.8402 2.65499 27.9912 2.49755 28.1834 2.49755H31.9146C32.1082 2.49755 32.2785 2.65499 32.2785 2.83254V6.5907C32.2785 6.76707 32.1069 6.90555 31.9146 6.90555H28.1834C27.9899 6.90555 27.8402 6.76825 27.8402 6.5907V6.39421C27.8402 6.21666 27.6686 6.07935 27.4764 6.07935H25.6108C25.4172 6.07935 25.2457 6.21666 25.2457 6.39421V7.12217C25.2457 7.29972 25.096 7.43702 24.9025 7.43702H23.5942V8.61832H24.6883V14.0088L37.6624 4.11208L49.8431 13.3199L67.3419 0L105 29H77.2287C76.5655 28.4887 75.8997 27.9975 75.2121 27.4849L70.0656 23.6096L69.872 23.7078C69.2076 24.0416 68.4786 24.2582 67.7264 24.3576L67.4052 24.3967C63.8675 24.6914 60.7142 22.3111 60.3711 19.0453C60.3285 18.7103 60.3285 18.3564 60.3711 18.0214L60.4356 17.2343C60.4356 17.1751 60.4794 17.1159 60.5427 17.097C60.6072 17.0579 60.6717 17.0769 60.7143 17.1171L65.5176 20.7569C65.7331 20.9143 65.9898 20.9534 66.2259 20.8753L68.4141 20.1272C68.6502 20.0491 68.8218 19.8526 68.8644 19.6159L69.2514 17.5302C69.294 17.2745 69.2089 17.0579 69.0153 16.9005L64.212 13.2607C64.1694 13.2216 64.1255 13.1625 64.1474 13.0832C64.1694 13.0252 64.212 12.9849 64.2765 12.9648L65.1125 12.7482C65.4763 12.67 65.8415 12.6109 66.2066 12.5706C69.3379 12.2948 72.2537 14.1638 73.0678 16.9384L73.0897 17.0366C73.1762 17.3515 73.2188 17.6462 73.2614 17.922C73.3259 18.5718 73.2613 19.2205 73.1103 19.8502L72.9827 20.2823L72.9401 20.4006L78.8363 24.8287H92.5393L67.2993 5.40938L36.3542 28.9988H29.2775L46.3041 16.0329L37.6844 9.50135L12.0793 28.9988H5V28.9988ZM34.5737 13.4359H37.2973V15.9346H34.5737V13.4359ZM38.1346 16.5833H40.8582V19.082H38.1346V16.5833ZM34.5737 16.5833H37.2973V19.082H34.5737V16.5833ZM38.1346 13.4359H40.8582V15.9346H38.1346V13.4359Z" fill="#FE5A0E"/>
<path d="M4.88372 47.0409C3.60885 47.0409 2.59877 46.6879 1.85346 45.9818C1.10815 45.2659 0.7355 44.246 0.7355 42.9221V40.4508C0.7355 39.1269 1.10815 38.1119 1.85346 37.4059C2.59877 36.69 3.60885 36.332 4.88372 36.332C6.14878 36.332 7.12454 36.6802 7.81101 37.3764C8.50728 38.0629 8.85542 39.0092 8.85542 40.2155V40.3037H6.94312V40.1566C6.94312 39.5486 6.7715 39.0485 6.42827 38.6562C6.09484 38.2639 5.57999 38.0678 4.88372 38.0678C4.19725 38.0678 3.65789 38.2786 3.26562 38.7003C2.87335 39.122 2.67722 39.6957 2.67722 40.4214V42.9515C2.67722 43.6674 2.87335 44.2411 3.26562 44.6726C3.65789 45.0943 4.19725 45.3051 4.88372 45.3051C5.57999 45.3051 6.09484 45.109 6.42827 44.7167C6.7715 44.3146 6.94312 43.8145 6.94312 43.2163V42.9515H8.85542V43.1575C8.85542 44.3637 8.50728 45.3149 7.81101 46.0112C7.12454 46.6977 6.14878 47.0409 4.88372 47.0409ZM14.4387 47.0409C13.1442 47.0409 12.1145 46.6879 11.3496 45.9818C10.5846 45.2659 10.2022 44.246 10.2022 42.9221V40.4508C10.2022 39.1269 10.5846 38.1119 11.3496 37.4059C12.1145 36.69 13.1442 36.332 14.4387 36.332C15.7331 36.332 16.7628 36.69 17.5278 37.4059C18.2927 38.1119 18.6751 39.1269 18.6751 40.4508V42.9221C18.6751 44.246 18.2927 45.2659 17.5278 45.9818C16.7628 46.6879 15.7331 47.0409 14.4387 47.0409ZM14.4387 45.3051C15.1644 45.3051 15.7282 45.0943 16.1303 44.6726C16.5324 44.2509 16.7334 43.687 16.7334 42.9809V40.392C16.7334 39.6859 16.5324 39.122 16.1303 38.7003C15.7282 38.2786 15.1644 38.0678 14.4387 38.0678C13.7228 38.0678 13.1589 38.2786 12.747 38.7003C12.3449 39.122 12.1439 39.6859 12.1439 40.392V42.9809C12.1439 43.687 12.3449 44.2509 12.747 44.6726C13.1589 45.0943 13.7228 45.3051 14.4387 45.3051ZM20.3783 46.835V36.538H24.0705L26.1152 45.5111H26.38V36.538H28.2923V46.835H24.6001L22.5554 37.8619H22.2906V46.835H20.3783ZM33.8074 47.0409C33.013 47.0409 32.3119 46.8987 31.7038 46.6143C31.0958 46.3299 30.6202 45.9229 30.277 45.3934C29.9337 44.8638 29.7621 44.2264 29.7621 43.4811V43.0692H31.6744V43.4811C31.6744 44.0989 31.8657 44.5647 32.2481 44.8785C32.6306 45.1825 33.1503 45.3345 33.8074 45.3345C34.4742 45.3345 34.9695 45.2022 35.2931 44.9374C35.6265 44.6726 35.7932 44.3343 35.7932 43.9224C35.7932 43.638 35.7099 43.4075 35.5432 43.231C35.3862 43.0545 35.1509 42.9123 34.8371 42.8044C34.5331 42.6867 34.1604 42.5789 33.7191 42.4808L33.3808 42.4073C32.6747 42.2503 32.0667 42.0542 31.5567 41.8189C31.0566 41.5737 30.6692 41.255 30.3947 40.8627C30.1299 40.4704 29.9975 39.9605 29.9975 39.3329C29.9975 38.7052 30.1446 38.1708 30.4388 37.7295C30.7428 37.2784 31.1645 36.9351 31.7038 36.6998C32.253 36.4546 32.8954 36.332 33.6309 36.332C34.3664 36.332 35.0185 36.4595 35.5873 36.7145C36.1659 36.9596 36.617 37.3323 36.9406 37.8324C37.274 38.3228 37.4407 38.9406 37.4407 39.6859V40.1272H35.5284V39.6859C35.5284 39.2936 35.45 38.9798 35.2931 38.7445C35.146 38.4993 34.9302 38.3228 34.6458 38.2149C34.3614 38.0972 34.0231 38.0384 33.6309 38.0384C33.0425 38.0384 32.6061 38.1512 32.3217 38.3767C32.0471 38.5925 31.9098 38.8916 31.9098 39.274C31.9098 39.529 31.9735 39.7447 32.101 39.9213C32.2383 40.0978 32.4393 40.2449 32.7041 40.3626C32.9689 40.4802 33.3072 40.5832 33.7191 40.6715L34.0574 40.745C34.7929 40.9019 35.4304 41.103 35.9697 41.3481C36.5189 41.5933 36.9455 41.9169 37.2495 42.319C37.5535 42.7211 37.7055 43.2359 37.7055 43.8635C37.7055 44.4912 37.5437 45.0452 37.2201 45.5258C36.9063 45.9965 36.4552 46.3691 35.8668 46.6437C35.2882 46.9085 34.6017 47.0409 33.8074 47.0409ZM41.2063 46.835V38.3032H38.2054V36.538H46.1488V38.3032H43.148V46.835H41.2063ZM47.4711 46.835V36.538H51.943C52.5902 36.538 53.1541 36.6507 53.6346 36.8763C54.1151 37.1018 54.4878 37.4206 54.7526 37.8324C55.0174 38.2443 55.1497 38.7298 55.1497 39.2887V39.4653C55.1497 40.0831 55.0026 40.5832 54.7084 40.9657C54.4142 41.3481 54.0514 41.6276 53.6199 41.8041V42.0689C54.0122 42.0885 54.3162 42.2258 54.5319 42.4808C54.7477 42.726 54.8555 43.0545 54.8555 43.4664V46.835H52.9138V43.7459C52.9138 43.5105 52.8501 43.3193 52.7226 43.1722C52.6049 43.0251 52.4039 42.9515 52.1195 42.9515H49.4128V46.835H47.4711ZM49.4128 41.1863H51.737C52.1979 41.1863 52.5559 41.0637 52.8109 40.8186C53.0756 40.5636 53.208 40.2302 53.208 39.8183V39.6712C53.208 39.2593 53.0805 38.9308 52.8256 38.6856C52.5706 38.4306 52.2077 38.3032 51.737 38.3032H49.4128V41.1863ZM60.7371 47.0409C59.8938 47.0409 59.1681 46.8889 58.5601 46.5849C57.9618 46.2711 57.5009 45.8298 57.1773 45.261C56.8635 44.6824 56.7066 44.0008 56.7066 43.2163V36.538H58.6483V43.2751C58.6483 43.9028 58.8248 44.398 59.1779 44.7609C59.5407 45.1237 60.0605 45.3051 60.7371 45.3051C61.4138 45.3051 61.9286 45.1237 62.2817 44.7609C62.6445 44.398 62.826 43.9028 62.826 43.2751V36.538H64.7677V43.2163C64.7677 44.0008 64.6059 44.6824 64.2822 45.261C63.9684 45.8298 63.5075 46.2711 62.8995 46.5849C62.3013 46.8889 61.5805 47.0409 60.7371 47.0409ZM70.5616 47.0409C69.2867 47.0409 68.2766 46.6879 67.5313 45.9818C66.786 45.2659 66.4133 44.246 66.4133 42.9221V40.4508C66.4133 39.1269 66.786 38.1119 67.5313 37.4059C68.2766 36.69 69.2867 36.332 70.5616 36.332C71.8266 36.332 72.8024 36.6802 73.4889 37.3764C74.1851 38.0629 74.5333 39.0092 74.5333 40.2155V40.3037H72.621V40.1566C72.621 39.5486 72.4494 39.0485 72.1061 38.6562C71.7727 38.2639 71.2578 38.0678 70.5616 38.0678C69.8751 38.0678 69.3357 38.2786 68.9435 38.7003C68.5512 39.122 68.3551 39.6957 68.3551 40.4214V42.9515C68.3551 43.6674 68.5512 44.2411 68.9435 44.6726C69.3357 45.0943 69.8751 45.3051 70.5616 45.3051C71.2578 45.3051 71.7727 45.109 72.1061 44.7167C72.4494 44.3146 72.621 43.8145 72.621 43.2163V42.9515H74.5333V43.1575C74.5333 44.3637 74.1851 45.3149 73.4889 46.0112C72.8024 46.6977 71.8266 47.0409 70.5616 47.0409ZM78.2973 46.835V38.3032H75.2965V36.538H83.2399V38.3032H80.239V46.835H78.2973ZM84.268 46.835V44.3637L89.3576 38.5091V38.2737H84.4151V36.538H91.3876V39.0092L86.2979 44.8638V45.0992H91.417V46.835H84.268ZM92.3316 46.835L95.0382 36.538H98.4215L101.128 46.835H99.1276L98.5686 44.5696H94.8911L94.3321 46.835H92.3316ZM95.3471 42.775H98.1126L96.8622 37.7589H96.5975L95.3471 42.775ZM102.361 46.835V36.538H104.302V46.835H102.361Z" fill="white"/>
</svg>
